<?xml version="1.0" encoding="UTF-8"?> <svg xmlns="http://www.w3.org/2000/svg" xmlns:xlink="http://www.w3.org/1999/xlink" width="256px" height="256px" viewBox="0 0 256 256"><!-- Generator: Sketch 54.1 (76490) - https://sketchapp.com --><title>axure_icon_125</title><desc>Created with Sketch.</desc><defs><linearGradient x1="50%" y1="0%" x2="50%" y2="100%" id="linearGradient-1"><stop stop-color="#FFFFFF" stop-opacity="0.5" offset="0%"></stop><stop stop-color="#E3E8E9" stop-opacity="0.5" offset="100%"></stop></linearGradient><rect id="path-2" x="0.509885536" y="0.509885536" width="243.725286" height="243.725286" rx="37.1612903"></rect><filter x="-3.1%" y="-2.7%" width="107.0%" height="107.0%" id="filter-3"><feOffset dx="1" dy="2" in="SourceAlpha" result="shadowOffsetOuter1"></feOffset><feGaussianBlur stdDeviation="2.5" in="shadowOffsetOuter1" result="shadowBlurOuter1"></feGaussianBlur><feColorMatrix values="0 0 0 0 0 0 0 0 0 0 0 0 0 0 0 0 0 0 0.5 0" type="matrix" in="shadowBlurOuter1"></feColorMatrix></filter><linearGradient x1="-0.0124927521%" y1="50.0005033%" x2="100%" y2="50.0005033%" id="linearGradient-4"><stop stop-color="#6764AD" offset="0%"></stop><stop stop-color="#5F69B1" offset="4%"></stop><stop stop-color="#407BBF" offset="21%"></stop><stop stop-color="#2789CA" offset="38%"></stop><stop stop-color="#1693D2" offset="57%"></stop><stop stop-color="#0B99D6" offset="76%"></stop><stop stop-color="#089BD8" offset="100%"></stop></linearGradient></defs><g id="axure_icon_125" stroke="none" stroke-width="1" fill="none" fill-rule="evenodd"><g id="Asset-5" transform="translate(5.129032, 4.564516)"><g id="Group" opacity="0.3" style="mix-blend-mode: multiply;"><rect id="Rectangle" fill="#231F20" fill-rule="nonzero" x="0.509885536" y="0.509885536" width="243.725286" height="243.725286" rx="37.1612903"></rect><rect id="Rectangle" stroke="#231F20" stroke-width="1.03225806" x="0.509885536" y="0.509885536" width="243.725286" height="243.725286" rx="37.1612903"></rect></g><g id="Rectangle" fill-rule="nonzero"><use fill="black" fill-opacity="1" filter="url(#filter-3)" xlink:href="#path-2"></use><use fill="#FFFFFF" xlink:href="#path-2"></use><use fill="url(#linearGradient-1)" xlink:href="#path-2"></use></g></g><g id="Asset-1" transform="translate(56.000000, 41.500000)" fill-rule="nonzero"><path d="M135.966316,5.40584416 L135.966316,5.40584416 C134.583301,2.63842232 131.69813,0.94367334 128.60391,1.08116883 L115.763008,1.08116883 C112.027669,1.08116883 109.266767,2.58399351 107.772632,5.28691558 L88.7819549,33.127013 L105.401504,55.950487 L134.493835,14.1633117 C137.68782,10.2819156 136.583459,6.76811688 135.966316,5.40584416 Z" id="Path" fill="#75BB43"></path><path d="M35.5993985,4.97337662 L35.5993985,4.97337662 C33.7383681,2.40848442 30.7130831,0.94671614 27.5440602,1.08116883 L14.9846617,1.08116883 C11.998493,0.95175882 9.19657844,2.52245561 7.75218045,5.13555195 C6.33383459,7.7736039 6.66947368,10.9522403 8.59669173,13.8930195 L55.1530827,78.4604221 L1.62406015,153.18 C-0.226433044,155.669252 -0.507371537,158.989667 0.898646617,161.753669 C2.34679034,164.363048 5.14618616,165.932333 8.13112782,165.808052 L20.9828571,165.808052 C24.1568664,165.860478 27.100845,164.159804 28.637594,161.386071 L88.5437594,78.7631494 L35.5993985,4.97337662 Z" id="Path" fill="url(#linearGradient-4)"></path><path d="M142.354286,153.828701 L105.022556,102.538052 L88.5978947,125.242597 L118.123308,164.694448 L118.89203,165.02961 C120.063152,165.558117 121.331449,165.837924 122.616541,165.851299 L135.17594,165.851299 C138.023075,165.948623 140.710476,164.539023 142.246015,162.14289 C143.755918,159.586727 143.797115,156.423206 142.354286,153.828701 L142.354286,153.828701 Z" id="Path" fill="#EB2385"></path></g></g></svg> 